<svg width="690" height="139" viewBox="0 0 690 139" fill="none" xmlns="http://www.w3.org/2000/svg">
<path d="M0.380001 136H27.02V88.66H44.84C73.46 88.66 96.14 75.16 96.14 44.74C96.14 13.06 73.46 2.8 44.12 2.8H0.380001V136ZM27.02 67.6V24.04H42.14C60.5 24.04 70.22 29.08 70.22 44.74C70.22 59.86 61.4 67.6 43.04 67.6H27.02ZM102.439 136H129.079V85.78H148.699C176.599 85.78 198.739 72.82 198.739 43.12C198.739 12.52 176.599 2.8 148.699 2.8H102.439V136ZM129.079 64.72V24.04H146.179C163.459 24.04 172.819 28.9 172.819 43.12C172.819 57.34 163.459 64.72 146.179 64.72H129.079ZM174.799 136H204.499L162.379 62.2L143.839 78.94L174.799 136ZM260.054 138.52C295.334 138.52 319.454 112.24 319.454 68.86C319.454 25.66 295.334 0.459996 260.054 0.459996C224.594 0.459996 200.474 25.48 200.474 68.86C200.474 112.24 224.594 138.52 260.054 138.52ZM260.054 115.48C240.074 115.48 227.654 97.3 227.654 68.86C227.654 40.42 240.074 23.32 260.054 23.32C279.854 23.32 292.454 40.42 292.454 68.86C292.454 97.3 279.854 115.48 260.054 115.48ZM345.38 138.52C373.82 138.52 386.6 118.18 386.6 93.16V2.8H359.96V91C359.96 109.36 353.84 115.48 341.96 115.48C334.4 115.48 327.38 111.34 322.34 101.62L303.98 115.3C312.98 130.78 325.94 138.52 345.38 138.52ZM400.704 136H484.404V113.68H427.344V78.22H473.964V55.72H427.344V24.94H482.424V2.8H400.704V136ZM547.626 138.52C564.906 138.52 579.126 131.86 590.106 119.08L576.066 102.34C569.046 110.08 560.046 115.48 548.706 115.48C527.466 115.48 513.966 98.2 513.966 69.04C513.966 40.6 529.086 23.32 549.066 23.32C559.326 23.32 566.886 27.82 573.726 34.48L587.766 17.38C579.126 8.37999 565.626 0.459996 548.706 0.459996C514.866 0.459996 486.786 26.02 486.786 69.94C486.786 114.4 513.966 138.52 547.626 138.52ZM616.164 136H642.804V24.94H680.424V2.8H578.544V24.94H616.164V136ZM672.902 138.52C682.262 138.52 689.462 131.14 689.462 121.24C689.462 111.34 682.262 104.14 672.902 104.14C663.362 104.14 656.522 111.34 656.522 121.24C656.522 131.14 663.362 138.52 672.902 138.52Z" fill="url(#paint0_linear_2_64)" fill-opacity="0.58"/>
<defs>
<linearGradient id="paint0_linear_2_64" x1="-16" y1="57.5001" x2="703" y2="57.5001" gradientUnits="userSpaceOnUse">
<stop stop-color="#00AC3B"/>
<stop offset="1" stop-color="#AC00A5"/>
</linearGradient>
</defs>
</svg>
