<svg width="441" height="137" viewBox="0 0 441 137" fill="none" xmlns="http://www.w3.org/2000/svg">
<path d="M25.98 134H58.56L73.14 68.12C75.12 57.86 77.1 47.42 78.9 37.34H79.62C81.24 47.42 83.04 57.86 85.38 68.12L100.14 134H133.44L158.1 0.799998H132.9L122.1 65.78C120.3 79.82 118.14 94.04 116.34 108.44H115.44C112.38 94.04 109.86 79.64 106.98 65.78L91.5 0.799998H68.64L53.34 65.78C50.46 79.82 47.58 94.04 44.88 108.44H44.16C42 94.04 40.02 79.82 37.86 65.78L27.42 0.799998H0.24L25.98 134ZM178.087 134H261.787V111.68H204.727V76.22H251.347V53.72H204.727V22.94H259.807V0.799998H178.087V134ZM288.829 134H336.349C365.509 134 387.829 121.58 387.829 94.76C387.829 76.94 377.209 66.68 362.989 63.26V62.54C374.329 58.4 380.989 45.98 380.989 33.74C380.989 8.89999 360.109 0.799998 332.749 0.799998H288.829V134ZM315.469 54.98V21.32H331.309C347.329 21.32 355.069 25.82 355.069 37.52C355.069 48.32 347.869 54.98 330.949 54.98H315.469ZM315.469 113.48V74.78H334.009C352.369 74.78 361.909 80.36 361.909 93.32C361.909 107 352.009 113.48 334.009 113.48H315.469ZM424.129 136.52C433.489 136.52 440.689 129.14 440.689 119.24C440.689 109.34 433.489 102.14 424.129 102.14C414.589 102.14 407.749 109.34 407.749 119.24C407.749 129.14 414.589 136.52 424.129 136.52Z" fill="url(#paint0_linear_2_63)" fill-opacity="0.58"/>
<defs>
<linearGradient id="paint0_linear_2_63" x1="-3" y1="55.5001" x2="454" y2="55.5001" gradientUnits="userSpaceOnUse">
<stop stop-color="#0047FF"/>
<stop offset="1" stop-color="#00AC3B"/>
</linearGradient>
</defs>
</svg>
