<svg viewBox="0 0 7 7" fill="none" xmlns="http://www.w3.org/2000/svg">
<path d="M3.5 0C1.56742 0 0 1.60674 0 3.58848C0 5.17399 1.00275 6.51907 2.39371 6.99365C2.56842 7.02684 2.625 6.9156 2.625 6.8211V6.15305C1.65142 6.37015 1.44871 5.72961 1.44871 5.72961C1.28946 5.31484 1.05992 5.20449 1.05992 5.20449C0.742292 4.98171 1.08412 4.98649 1.08412 4.98649C1.43558 5.01161 1.6205 5.35641 1.6205 5.35641C1.93258 5.90485 2.43921 5.74635 2.639 5.65455C2.67021 5.42279 2.76092 5.2643 2.86125 5.17489C2.08396 5.08368 1.26671 4.77597 1.26671 3.40128C1.26671 3.00924 1.4035 2.68927 1.62721 2.43807C1.59104 2.34746 1.47117 1.98234 1.66133 1.48832C1.66133 1.48832 1.95533 1.39203 2.62412 1.85614C2.90325 1.7766 3.2025 1.73682 3.5 1.73533C3.7975 1.73682 4.09704 1.7766 4.37675 1.85614C5.04496 1.39203 5.33837 1.48832 5.33837 1.48832C5.52883 1.98264 5.40896 2.34776 5.37279 2.43807C5.59737 2.68927 5.733 3.00954 5.733 3.40128C5.733 4.77956 4.91429 5.08308 4.13496 5.1719C4.26037 5.28314 4.375 5.50144 4.375 5.83637V6.8211C4.375 6.9165 4.431 7.02864 4.60862 6.99335C5.99842 6.51818 7 5.17339 7 3.58848C7 1.60674 5.43287 0 3.5 0Z" fill="black"/>
</svg>
